<svg width="1080" height="586" viewBox="0 0 1080 586" fill="none" xmlns="http://www.w3.org/2000/svg">
<path fill-rule="evenodd" clip-rule="evenodd" d="M1046.84 1435.1C973.904 1548.93 996.918 1719.63 892.329 1805.29C789.909 1889.17 635.136 1847.7 506.219 1877.89C363.315 1911.35 232.091 2012.54 86.4851 1993.97C-60.3157 1975.26 -218.914 1902.95 -294.621 1775.79C-374.327 1641.91 -268.105 1461.64 -318.268 1314.14C-361.278 1187.67 -523.848 1127.97 -558.778 999.042C-594.334 867.804 -588.279 710.995 -512.196 598.334C-434.519 483.311 -250.228 496.208 -152.586 397.565C-49.8846 293.813 -69.8505 86.7643 60.0836 20.193C184.239 -43.4178 330.714 69.6242 469.949 78.6114C612.16 87.7908 758.962 24.8702 892.764 73.9401C1029.1 123.941 1150.71 226.428 1220.39 353.827C1288.98 479.207 1260.19 632.158 1275.81 774.197C1289.92 902.463 1350.82 1033.76 1308.58 1155.68C1266.34 1277.6 1116.45 1326.46 1046.84 1435.1Z" fill="#40C1F3"/>
</svg>
